<?xml version="1.0"?>
<svg xmlns="http://www.w3.org/2000/svg" id="OutlineExpand" enable-background="new 0 0 64 64" height="512px" viewBox="0 0 64 64" width="512px"><g><path d="m61 7h-4v-2c0-1.654-1.346-3-3-3s-3 1.346-3 3v2h-5v-2c0-1.654-1.346-3-3-3s-3 1.346-3 3v2h-5v-2c0-1.654-1.346-3-3-3s-3 1.346-3 3v2h-5v-2c0-1.654-1.346-3-3-3s-3 1.346-3 3v2h-5v-2c0-1.654-1.346-3-3-3s-3 1.346-3 3v2h-4c-.552 0-1 .448-1 1v49c0 2.757 2.243 5 5 5h50c2.757 0 5-2.243 5-5v-49c0-.552-.448-1-1-1zm-8-2c0-.551.449-1 1-1s1 .449 1 1v6c0 .551-.449 1-1 1s-1-.449-1-1zm-11 0c0-.551.449-1 1-1s1 .449 1 1v6c0 .551-.449 1-1 1s-1-.449-1-1zm-11 0c0-.551.449-1 1-1s1 .449 1 1v6c0 .551-.449 1-1 1s-1-.449-1-1zm-11 0c0-.551.449-1 1-1s1 .449 1 1v6c0 .551-.449 1-1 1s-1-.449-1-1zm-11 0c0-.551.449-1 1-1s1 .449 1 1v6c0 .551-.449 1-1 1s-1-.449-1-1zm-2 4v2c0 1.654 1.346 3 3 3s3-1.346 3-3v-2h5v2c0 1.654 1.346 3 3 3s3-1.346 3-3v-2h5v2c0 1.654 1.346 3 3 3s3-1.346 3-3v-2h5v2c0 1.654 1.346 3 3 3s3-1.346 3-3v-2h5v2c0 1.654 1.346 3 3 3s3-1.346 3-3v-2h3v9h-56v-9zm50 51h-50c-1.654 0-3-1.346-3-3v-37h56v37c0 1.654-1.346 3-3 3z" data-original="#000000" class="active-path" data-old_color="#000000" fill="#374957"/><path d="m29 22h-8c-.552 0-1 .448-1 1v8c0 .552.448 1 1 1h8c.552 0 1-.448 1-1v-8c0-.552-.448-1-1-1zm-1 8h-6v-6h6z" data-original="#000000" class="active-path" data-old_color="#000000" fill="#374957"/><path d="m15 22h-8c-.552 0-1 .448-1 1v8c0 .552.448 1 1 1h8c.552 0 1-.448 1-1v-8c0-.552-.448-1-1-1zm-1 8h-6v-6h6z" data-original="#000000" class="active-path" data-old_color="#000000" fill="#374957"/><path d="m43 22h-8c-.552 0-1 .448-1 1v8c0 .552.448 1 1 1h8c.552 0 1-.448 1-1v-8c0-.552-.448-1-1-1zm-1 8h-6v-6h6z" data-original="#000000" class="active-path" data-old_color="#000000" fill="#374957"/><path d="m57 22h-8c-.552 0-1 .448-1 1v8c0 .552.448 1 1 1h8c.552 0 1-.448 1-1v-8c0-.552-.448-1-1-1zm-1 8h-6v-6h6z" data-original="#000000" class="active-path" data-old_color="#000000" fill="#374957"/><path d="m15 35h-8c-.552 0-1 .448-1 1v8c0 .552.448 1 1 1h8c.552 0 1-.448 1-1v-8c0-.552-.448-1-1-1zm-1 8h-6v-6h6z" data-original="#000000" class="active-path" data-old_color="#000000" fill="#374957"/><path d="m29 35h-8c-.552 0-1 .448-1 1v8c0 .552.448 1 1 1h8c.552 0 1-.448 1-1v-8c0-.552-.448-1-1-1zm-1 8h-6v-6h6z" data-original="#000000" class="active-path" data-old_color="#000000" fill="#374957"/><path d="m43 35h-8c-.552 0-1 .448-1 1v8c0 .552.448 1 1 1h8c.552 0 1-.448 1-1v-8c0-.552-.448-1-1-1zm-1 8h-6v-6h6z" data-original="#000000" class="active-path" data-old_color="#000000" fill="#374957"/><path d="m57 35h-8c-.552 0-1 .448-1 1v8c0 .552.448 1 1 1h8c.552 0 1-.448 1-1v-8c0-.552-.448-1-1-1zm-1 8h-6v-6h6z" data-original="#000000" class="active-path" data-old_color="#000000" fill="#374957"/><path d="m57 48h-8c-.552 0-1 .448-1 1v8c0 .552.448 1 1 1h8c.552 0 1-.448 1-1v-8c0-.552-.448-1-1-1zm-1 8h-6v-6h6z" data-original="#000000" class="active-path" data-old_color="#000000" fill="#374957"/><path d="m15 48h-8c-.552 0-1 .448-1 1v8c0 .552.448 1 1 1h8c.552 0 1-.448 1-1v-8c0-.552-.448-1-1-1zm-1 8h-6v-6h6z" data-original="#000000" class="active-path" data-old_color="#000000" fill="#374957"/><path d="m29 48h-8c-.552 0-1 .448-1 1v8c0 .552.448 1 1 1h8c.552 0 1-.448 1-1v-8c0-.552-.448-1-1-1zm-1 8h-6v-6h6z" data-original="#000000" class="active-path" data-old_color="#000000" fill="#374957"/><path d="m43 48h-8c-.552 0-1 .448-1 1v8c0 .552.448 1 1 1h8c.552 0 1-.448 1-1v-8c0-.552-.448-1-1-1zm-1 8h-6v-6h6z" data-original="#000000" class="active-path" data-old_color="#000000" fill="#374957"/></g> </svg>
